<svg xmlns="http://www.w3.org/2000/svg" xmlns:xlink="http://www.w3.org/1999/xlink" version="1.1" x="0" y="0" viewBox="0 0 247 47" enable-background="new 0 0 247 47" xml:space="preserve">
      <path fill="#FFFFFF" d="M0 46.3L10.3 1.3h26.4l-1.9 7.9H17.7l-2.4 10.6h13.6L27 27.7H13.5l-2.4 10.6h17.2l-1.8 7.9L0 46.3 0 46.3z"></path>
      <path fill="#FFFFFF" d="M41.5 47c-3.1 0-5.5-1-7.1-3 -1.6-2-2.4-4.9-2.4-8.6s0.6-7.3 1.8-10.7c1.2-3.4 3.1-6.3 5.7-8.6 2.6-2.4 5.7-3.5 9.1-3.5 1.5 0 3.7 0.4 6.6 1.1l1.3 0.4L59.8 0h8.9L58 46.3h-8.6l0.6-3.4c-0.9 1-2.2 2-3.8 2.9C44.4 46.6 42.9 47 41.5 47zM55 20.9c-2.6-0.6-4.6-0.9-6.3-0.9 -1.6 0-3 0.9-4.2 2.6 -1.2 1.8-2.1 3.7-2.7 6.1C41.3 31 41 33.2 41 35.3c0 2.8 1.1 4.2 3.4 4.2 0.7 0 1.7-0.4 2.9-1.2s2.3-1.6 3.2-2.4l1.3-1.2L55 20.9z"></path>
      <path fill="#FFFFFF" d="M69 13.2h8.7l-0.9 25.7H78l11.3-25.7h8.9L82.7 46.3H68.8L69 13.2z"></path>
      <path fill="#FFFFFF" d="M95 46.3l7.6-33.1h8.8l-7.6 33.1H95zM103.3 9.7l2.1-9h8.9l-2.1 9H103.3z"></path>
      <path fill="#FFFFFF" d="M127.4 20c-1.3 0-2.3 0.3-3 0.9 -0.7 0.6-1.1 1.3-1.1 2.2 0 0.8 0.3 1.4 0.9 1.8 0.6 0.4 2.2 1 4.8 1.8 2.6 0.8 4.5 1.7 5.8 2.7 1.3 1.1 2 2.7 2 5.1 0 4.1-1.4 7.3-4.1 9.4s-6.3 3.2-10.8 3.2c-1.9 0-3.8-0.2-5.7-0.6 -1.9-0.4-3.3-0.8-4.2-1.2l-1.5-0.5 1.7-6.5c4.2 0.8 7.9 1.2 11 1.2s4.6-1.1 4.6-3.2c0-0.6-0.3-1-0.9-1.4 -0.6-0.4-1.7-0.7-3.2-1.2 -3.1-0.9-5.5-1.9-6.9-3.1 -1.5-1.2-2.3-2.9-2.3-5.1 0-4.1 1.4-7.3 4-9.6 2.7-2.3 5.9-3.5 9.7-3.5 2.1 0 4.1 0.2 6.1 0.5 2 0.3 3.4 0.7 4.4 1l1.5 0.5 -1.6 6.6C134 20.4 130.3 20 127.4 20z"></path>
      <path fill="#FFFFFF" d="M157.6 12.4c8.7 0 13 4.2 13 12.5 0 3.6-0.6 7-1.8 10.3 -1.2 3.3-3.1 6.1-5.7 8.4s-5.7 3.5-9.2 3.5c-8.7 0-13-4.1-13-12.5 0-3.5 0.7-7 1.9-10.3 1.3-3.3 3.2-6.1 5.9-8.4C151.3 13.6 154.2 12.4 157.6 12.4zM153.9 39.5c2.4 0 4.3-1.5 5.8-4.5 1.5-3 2.2-6.4 2.2-10.2 0-3.2-1.4-4.8-4.2-4.8 -2.4 0-4.3 1.5-5.8 4.5s-2.2 6.4-2.2 10.2C149.6 37.9 151.1 39.5 153.9 39.5z"></path>
      <path fill="#FFFFFF" d="M170.3 46.3l7.6-33.1h8.8l-1.2 4.7c1.3-1.2 3-2.4 5.1-3.5s3.8-1.8 5.3-2l-2.6 9.2c-2.1 0.7-4.7 1.7-7.7 3l-1.6 0.7 -4.8 20.9L170.3 46.3 170.3 46.3z"></path>
      <path fill="#FFFFFF" d="M186.6 46.3l2.3-10.1h9l-2.3 10.1H186.6z"></path>
      <path fill="#FFFFFF" d="M199.7 46.3l7.6-33.1h8.8l-7.6 33.1H199.7zM208.1 9.7l2.1-9h8.9l-2.1 9H208.1z"></path>
      <path fill="#FFFFFF" d="M232.9 12.4c8.7 0 13 4.2 13 12.5 0 3.6-0.6 7-1.8 10.3 -1.2 3.3-3.1 6.1-5.7 8.4s-5.7 3.5-9.2 3.5c-8.7 0-13-4.1-13-12.5 0-3.5 0.7-7 1.9-10.3s3.2-6.1 5.9-8.4C226.6 13.6 229.5 12.4 232.9 12.4zM229.2 39.5c2.4 0 4.3-1.5 5.8-4.5 1.5-3 2.2-6.4 2.2-10.2 0-3.2-1.4-4.8-4.2-4.8 -2.4 0-4.3 1.5-5.8 4.5s-2.2 6.4-2.2 10.2C224.9 37.9 226.4 39.5 229.2 39.5z"></path>
</svg>